<svg id="Layer_1" data-name="Layer 1" xmlns="http://www.w3.org/2000/svg" viewBox="0 0 503.19 415"><defs><style>.cls-1{font-size:60px;font-family:SegoeUI, Segoe UI;}.cls-2,.cls-3{stroke:#000;stroke-miterlimit:10;}.cls-3{fill:none;stroke-width:5px;}</style></defs><title>Logo_1_transparent</title><path d="M250,457.5C135.58,457.5,42.5,364.42,42.5,250S135.58,42.5,250,42.5,457.5,135.58,457.5,250,364.42,457.5,250,457.5Zm0-400C143.85,57.5,57.5,143.85,57.5,250S143.85,442.5,250,442.5,442.5,356.14,442.5,250,356.14,57.5,250,57.5Z" transform="translate(-42.5 -42.5)"/><text class="cls-1" transform="translate(87.85 228.15)">F</text><text class="cls-1" transform="translate(189.8 330.67)">X</text><text class="cls-1" transform="translate(293.87 228.15)">V</text><path d="M53.8,289" transform="translate(-42.5 -42.5)"/><polygon class="cls-2" points="303.31 319.97 306.13 317.6 306.43 315.43 305.51 313.09 304.29 312.92 238.02 228.67 236.81 228.5 167.69 141.58 150.42 113.6 151.65 110.75 151.03 109.28 146.26 101.06 150.02 96.77 155.02 93.48 161.94 90.19 171.13 86.38 189.56 79.47 208.3 73.29 226.69 68.57 240.97 64.79 265.06 51.79 265.48 50.75 263.59 50.48 237.79 53.07 183.97 66.31 158.33 73.73 134.49 81.95 129.16 81.76 125.24 79.29 123.82 79.64 114.36 84.37 107.79 89.09 101.47 95.9 100.98 99.41 99.35 101.73 75.7 120.01 67.58 126.44 51.18 142.5 37.25 158.57 33.05 163.55 28.57 173.92 32.86 172.25 38.48 165.96 49.39 154.83 56.11 149.51 66.73 140.41 75.49 134.28 85.62 127.72 92.96 124.41 101.07 121.42 108.46 118.74 112.38 118.26 115.86 118.4 118.98 121.17 122.02 124.55 125.53 127.45 128.03 128.21 131.03 127.46 133.21 128.59 153.5 147.71 158.84 153.41 226.63 235.74 239.23 251.05 281.08 302.33 293.97 317.33 296.5 321.23 299.42 321.63 303.31 319.97"/><polygon class="cls-3" points="111.69 319.97 108.88 317.6 108.57 315.43 109.49 313.09 110.71 312.92 176.98 228.67 178.19 228.5 247.31 141.58 264.58 113.6 263.35 110.75 263.97 109.28 268.74 101.06 264.98 96.77 259.98 93.48 253.06 90.19 243.87 86.38 225.44 79.47 206.7 73.29 188.31 68.57 174.03 64.79 149.94 51.79 149.52 50.75 151.41 50.48 177.21 53.07 231.03 66.31 256.67 73.73 280.51 81.95 285.84 81.76 289.76 79.29 291.18 79.64 300.64 84.37 307.21 89.09 313.53 95.9 314.02 99.41 315.65 101.73 339.3 120.01 347.42 126.44 363.82 142.5 377.75 158.57 381.95 163.55 386.43 173.92 382.14 172.25 376.52 165.96 365.61 154.83 358.89 149.51 348.27 140.41 339.51 134.28 329.38 127.72 322.04 124.41 313.93 121.42 306.54 118.74 302.62 118.26 299.14 118.4 296.02 121.17 292.99 124.55 289.47 127.45 286.96 128.21 283.97 127.46 281.79 128.59 261.5 147.71 256.16 153.41 188.37 235.74 175.77 251.05 133.92 302.33 121.03 317.33 118.5 321.23 115.58 321.63 111.69 319.97"/><text x="-42.5" y="-42.5"/></svg>