<?xml version="1.0" encoding="utf-8"?>
<!-- Generator: Adobe Illustrator 23.0.1, SVG Export Plug-In . SVG Version: 6.00 Build 0)  -->
<svg version="1.1" id="Layer_1" xmlns="http://www.w3.org/2000/svg" xmlns:xlink="http://www.w3.org/1999/xlink" x="0px" y="0px"
	 viewBox="0 0 500 500" style="enable-background:new 0 0 500 500;" xml:space="preserve">
<style type="text/css">
	.st0{fill:#FFFFFF;}
	.st1{font-family:'SegoeUI';}
	.st2{font-size:60px;}
	.st3{fill:#FFFFFF;stroke:#FFFFFF;stroke-miterlimit:10;}
	.st4{fill:none;stroke:#FFFFFF;stroke-width:5;stroke-miterlimit:10;}
</style>
<g>
	<g>
		<path class="st0" d="M250,457.5c-114.42,0-207.5-93.08-207.5-207.5S135.58,42.5,250,42.5S457.5,135.58,457.5,250
			S364.42,457.5,250,457.5z M250,57.5C143.85,57.5,57.5,143.85,57.5,250c0,106.14,86.35,192.5,192.5,192.5
			c106.14,0,192.5-86.36,192.5-192.5C442.5,143.85,356.14,57.5,250,57.5z"/>
	</g>
	<text transform="matrix(1 0 0 1 130.3517 270.6479)" class="st0 st1 st2">F</text>
	<text transform="matrix(1 0 0 1 232.3043 373.1689)" class="st0 st1 st2">X</text>
	<text transform="matrix(1 0 0 1 336.3672 270.6477)" class="st0 st1 st2">V</text>
	<path class="st0" d="M53.8,288.99"/>
	<polygon class="st3" points="345.81,362.47 348.62,360.1 348.93,357.93 348.01,355.59 346.79,355.42 280.52,271.17 279.31,271 
		210.19,184.08 192.92,156.1 194.15,153.25 193.53,151.78 188.76,143.56 192.52,139.27 197.52,135.98 204.44,132.69 213.63,128.88 
		232.06,121.97 250.8,115.79 269.19,111.07 283.47,107.29 307.56,94.29 307.98,93.25 306.09,92.98 280.29,95.57 226.47,108.81 
		200.83,116.23 176.99,124.45 171.66,124.26 167.74,121.79 166.32,122.14 156.86,126.87 150.29,131.59 143.97,138.4 143.48,141.91 
		141.85,144.23 118.2,162.51 110.08,168.94 93.68,185 79.75,201.07 75.55,206.05 71.07,216.42 75.36,214.75 80.98,208.46 
		91.89,197.33 98.61,192.01 109.23,182.91 117.99,176.78 128.12,170.22 135.46,166.91 143.57,163.92 150.96,161.24 154.88,160.76 
		158.36,160.9 161.48,163.67 164.52,167.05 168.03,169.95 170.53,170.71 173.53,169.96 175.71,171.09 196,190.21 201.34,195.91 
		269.13,278.24 281.73,293.55 323.58,344.83 336.47,359.83 339,363.73 341.92,364.13 	"/>
	<polygon class="st4" points="154.19,362.47 151.38,360.1 151.07,357.93 151.99,355.59 153.21,355.42 219.48,271.17 220.69,271 
		289.81,184.08 307.08,156.1 305.85,153.25 306.47,151.78 311.24,143.56 307.48,139.27 302.48,135.98 295.56,132.69 286.37,128.88 
		267.94,121.97 249.2,115.79 230.81,111.07 216.53,107.29 192.44,94.29 192.02,93.25 193.91,92.98 219.71,95.57 273.53,108.81 
		299.17,116.23 323.01,124.45 328.34,124.26 332.26,121.79 333.68,122.14 343.14,126.87 349.71,131.59 356.03,138.4 356.52,141.91 
		358.15,144.23 381.8,162.51 389.92,168.94 406.32,185 420.25,201.07 424.45,206.05 428.93,216.42 424.64,214.75 419.02,208.46 
		408.11,197.33 401.39,192.01 390.77,182.91 382.01,176.78 371.88,170.22 364.54,166.91 356.43,163.92 349.04,161.24 345.12,160.76 
		341.64,160.9 338.52,163.67 335.48,167.05 331.97,169.95 329.47,170.71 326.47,169.96 324.29,171.09 304,190.21 298.66,195.91 
		230.87,278.24 218.27,293.55 176.42,344.83 163.53,359.83 161,363.73 158.08,364.13 	"/>
</g>
</svg>
